<?xml version="1.0" encoding="utf-8"?>
<!-- Generator: Adobe Illustrator 16.0.0, SVG Export Plug-In . SVG Version: 6.00 Build 0)  -->
<!DOCTYPE svg PUBLIC "-//W3C//DTD SVG 1.1//EN" "http://www.w3.org/Graphics/SVG/1.1/DTD/svg11.dtd">
<svg version="1.1" id="Layer_1" xmlns="http://www.w3.org/2000/svg" xmlns:xlink="http://www.w3.org/1999/xlink" x="0px" y="0px"
	 width="612px" height="792px" viewBox="0 0 612 792" enable-background="new 0 0 612 792" xml:space="preserve">
<g>
	<line fill-rule="evenodd" clip-rule="evenodd" fill="#006838" x1="72.658" y1="355.242" x2="72.658" y2="353.283"/>
	<path fill-rule="evenodd" clip-rule="evenodd" fill="#006838" d="M231.897,396.316c83.378,0,21,0,104.667,0V272.26l-47.305-45.292
		l-263.151,0.003c-2.288,0-4.575,0.127-6.857,0.195l-0.794,237.896l57.625,51.891l-0.529-234.221l0,0c91.742,0,102.518,0,178.666,0
		c-0.028-0.063-0.062-0.117-0.088-0.179c0.026,0.062,0.06,0.116,0.088,0.179c-0.088-0.179,0,0,0,0l26.856,25.674c0.06,0.087,0,0,0,0
		l0,0c0,16.557-0.035,39.672-0.035,39.672H109.094l295.558,274.329l0.098-64.08L231.897,396.316z"/>
</g>
<g>
	<path fill-rule="evenodd" clip-rule="evenodd" fill="#F15A29" d="M285.613,416.693h5.206l301.93-0.196l0,0l-38.718,50.223
		l-84.344-0.117l-0.132,92.512l-47.174,63.293c0-69.52,0.105-155.744,0.105-155.744l0,0l-85.237-0.635l0,0L285.613,416.693z"/>
</g>
</svg>
